<?xml version="1.0" encoding="UTF-8" standalone="no"?>
<!DOCTYPE svg PUBLIC "-//W3C//DTD SVG 1.1//EN"
 "http://www.w3.org/Graphics/SVG/1.1/DTD/svg11.dtd">
<!-- Generated by graphviz version 2.40.1 (20161225.0304)
 -->
<!-- Title: models_diagram Pages: 1 -->
<svg width="519pt" height="225pt"
 viewBox="0.00 0.00 519.31 225.00" xmlns="http://www.w3.org/2000/svg" xmlns:xlink="http://www.w3.org/1999/xlink">
<g id="graph0" class="graph" transform="scale(1 1) rotate(0) translate(4 221)">
<title>models_diagram</title>
<polygon fill="transparent" stroke="transparent" points="-4,4 -4,-221 515.3052,-221 515.3052,4 -4,4"/>
<!-- _diagram_info -->
<g id="node1" class="node">
<title>_diagram_info</title>
<text text-anchor="start" x="8" y="-202.6" font-family="Times,serif" font-size="13.00" fill="#000000">Models diagram</text>
<text text-anchor="start" x="8" y="-189.6" font-family="Times,serif" font-size="13.00" fill="#000000">Date: Jul 14 2017 &#45; 20:32</text>
<text text-anchor="start" x="8" y="-176.6" font-family="Times,serif" font-size="13.00" fill="#000000">Migration version: 20170714234013</text>
<text text-anchor="start" x="8" y="-163.6" font-family="Times,serif" font-size="13.00" fill="#000000">Generated by RailRoady 1.5.3</text>
<text text-anchor="start" x="8" y="-150.6" font-family="Times,serif" font-size="13.00" fill="#000000">http://railroady.prestonlee.com</text>
</g>
<!-- ApplicationRecord -->
<g id="node2" class="node">
<title>ApplicationRecord</title>
<ellipse fill="none" stroke="#000000" cx="302.6877" cy="-180.5" rx="77.2916" ry="18"/>
<text text-anchor="middle" x="302.6877" y="-176.3" font-family="Times,serif" font-size="14.00" fill="#000000">ApplicationRecord</text>
</g>
<!-- Category -->
<g id="node3" class="node">
<title>Category</title>
<ellipse fill="none" stroke="#000000" cx="440.6877" cy="-180.5" rx="42.5456" ry="18"/>
<text text-anchor="middle" x="440.6877" y="-176.3" font-family="Times,serif" font-size="14.00" fill="#000000">Category</text>
</g>
<!-- CategoryProduct -->
<g id="node4" class="node">
<title>CategoryProduct</title>
<ellipse fill="none" stroke="#000000" cx="440.6877" cy="-18" rx="70.0668" ry="18"/>
<text text-anchor="middle" x="440.6877" y="-13.8" font-family="Times,serif" font-size="14.00" fill="#000000">CategoryProduct</text>
</g>
<!-- Category&#45;&gt;CategoryProduct -->
<g id="edge1" class="edge">
<title>Category&#45;&gt;CategoryProduct</title>
<path fill="none" stroke="#405cab" d="M433.6063,-154.5707C428.4994,-132.5914 423.0874,-100.2334 426.6877,-72 427.7731,-63.4887 429.784,-54.4011 431.9497,-46.1555"/>
<ellipse fill="none" stroke="#405cab" cx="434.5815" cy="-158.5699" rx="4" ry="4"/>
<polygon fill="#405cab" stroke="#405cab" points="432.0218,-45.8978 439.0513,-37.4813 433.3699,-41.0829 434.7179,-36.2681 434.7179,-36.2681 434.7179,-36.2681 433.3699,-41.0829 430.3845,-35.0548 432.0218,-45.8978 432.0218,-45.8978"/>
</g>
<!-- Product -->
<g id="node5" class="node">
<title>Product</title>
<ellipse fill="none" stroke="#000000" cx="473.6877" cy="-90" rx="37.7352" ry="18"/>
<text text-anchor="middle" x="473.6877" y="-85.8" font-family="Times,serif" font-size="14.00" fill="#000000">Product</text>
</g>
<!-- Category&#45;&gt;Product -->
<g id="edge2" class="edge">
<title>Category&#45;&gt;Product</title>
<path fill="none" stroke="#3a0ce3" d="M450.7037,-153.032C454.8413,-141.685 459.6258,-128.5639 463.7546,-117.2408"/>
<polygon fill="#3a0ce3" stroke="#3a0ce3" points="450.6333,-153.2252 442.9798,-161.0785 448.9204,-157.9227 447.2075,-162.6201 447.2075,-162.6201 447.2075,-162.6201 448.9204,-157.9227 451.4352,-164.1617 450.6333,-153.2252 450.6333,-153.2252"/>
<polygon fill="#3a0ce3" stroke="#3a0ce3" points="463.7557,-117.2376 471.4093,-109.3844 465.4686,-112.5402 467.1816,-107.8427 467.1816,-107.8427 467.1816,-107.8427 465.4686,-112.5402 462.9538,-106.3011 463.7557,-117.2376 463.7557,-117.2376"/>
</g>
<!-- Product&#45;&gt;CategoryProduct -->
<g id="edge3" class="edge">
<title>Product&#45;&gt;CategoryProduct</title>
<path fill="none" stroke="#a4c228" d="M462.18,-64.8922C459.3274,-58.6683 456.255,-51.965 453.3506,-45.628"/>
<ellipse fill="none" stroke="#a4c228" cx="463.8638" cy="-68.566" rx="4" ry="4"/>
<polygon fill="#a4c228" stroke="#a4c228" points="453.147,-45.1838 453.0712,-34.2181 451.0637,-40.6384 448.9804,-36.0931 448.9804,-36.0931 448.9804,-36.0931 451.0637,-40.6384 444.8896,-37.9681 453.147,-45.1838 453.147,-45.1838"/>
</g>
</g>
</svg>
