<?xml version="1.0" encoding="UTF-8" standalone="no"?>
<!DOCTYPE svg PUBLIC "-//W3C//DTD SVG 1.1//EN"
 "http://www.w3.org/Graphics/SVG/1.1/DTD/svg11.dtd">
<!-- Generated by graphviz version 2.40.1 (20161225.0304)
 -->
<!-- Title: models_diagram Pages: 1 -->
<svg width="730pt" height="369pt"
 viewBox="0.00 0.00 729.55 369.00" xmlns="http://www.w3.org/2000/svg" xmlns:xlink="http://www.w3.org/1999/xlink">
<g id="graph0" class="graph" transform="scale(1 1) rotate(0) translate(4 365)">
<title>models_diagram</title>
<polygon fill="transparent" stroke="transparent" points="-4,4 -4,-365 725.55,-365 725.55,4 -4,4"/>
<!-- _diagram_info -->
<g id="node1" class="node">
<title>_diagram_info</title>
<text text-anchor="start" x="8" y="-339.6" font-family="Times,serif" font-size="13.00" fill="#000000">Models diagram</text>
<text text-anchor="start" x="8" y="-326.6" font-family="Times,serif" font-size="13.00" fill="#000000">Date: Jul 14 2017 &#45; 20:32</text>
<text text-anchor="start" x="8" y="-313.6" font-family="Times,serif" font-size="13.00" fill="#000000">Migration version: 20170714234013</text>
<text text-anchor="start" x="8" y="-300.6" font-family="Times,serif" font-size="13.00" fill="#000000">Generated by RailRoady 1.5.3</text>
<text text-anchor="start" x="8" y="-287.6" font-family="Times,serif" font-size="13.00" fill="#000000">http://railroady.prestonlee.com</text>
</g>
<!-- ApplicationRecord -->
<g id="node2" class="node">
<title>ApplicationRecord</title>
<ellipse fill="none" stroke="#000000" cx="302.6877" cy="-317.5" rx="77.2916" ry="18"/>
<text text-anchor="middle" x="302.6877" y="-313.3" font-family="Times,serif" font-size="14.00" fill="#000000">ApplicationRecord</text>
</g>
<!-- Category -->
<g id="node3" class="node">
<title>Category</title>
<path fill="none" stroke="#000000" d="M409.8254,-274.5C409.8254,-274.5 633.55,-274.5 633.55,-274.5 639.55,-274.5 645.55,-280.5 645.55,-286.5 645.55,-286.5 645.55,-348.5 645.55,-348.5 645.55,-354.5 639.55,-360.5 633.55,-360.5 633.55,-360.5 409.8254,-360.5 409.8254,-360.5 403.8254,-360.5 397.8254,-354.5 397.8254,-348.5 397.8254,-348.5 397.8254,-286.5 397.8254,-286.5 397.8254,-280.5 403.8254,-274.5 409.8254,-274.5"/>
<text text-anchor="middle" x="521.6877" y="-345.3" font-family="Times,serif" font-size="14.00" fill="#000000">Category</text>
<polyline fill="none" stroke="#000000" points="397.8254,-338.5 645.55,-338.5 "/>
<text text-anchor="start" x="405.8254" y="-323.3" font-family="Times,serif" font-size="14.00" fill="#000000">id :integer</text>
<text text-anchor="start" x="405.8254" y="-309.3" font-family="Times,serif" font-size="14.00" fill="#000000">name :character varying</text>
<text text-anchor="start" x="405.8254" y="-295.3" font-family="Times,serif" font-size="14.00" fill="#000000">created_at :timestamp without time zone</text>
<text text-anchor="start" x="405.8254" y="-281.3" font-family="Times,serif" font-size="14.00" fill="#000000">updated_at :timestamp without time zone</text>
</g>
<!-- CategoryProduct -->
<g id="node4" class="node">
<title>CategoryProduct</title>
<path fill="none" stroke="#000000" d="M409.8254,-.5C409.8254,-.5 633.55,-.5 633.55,-.5 639.55,-.5 645.55,-6.5 645.55,-12.5 645.55,-12.5 645.55,-88.5 645.55,-88.5 645.55,-94.5 639.55,-100.5 633.55,-100.5 633.55,-100.5 409.8254,-100.5 409.8254,-100.5 403.8254,-100.5 397.8254,-94.5 397.8254,-88.5 397.8254,-88.5 397.8254,-12.5 397.8254,-12.5 397.8254,-6.5 403.8254,-.5 409.8254,-.5"/>
<text text-anchor="middle" x="521.6877" y="-85.3" font-family="Times,serif" font-size="14.00" fill="#000000">CategoryProduct</text>
<polyline fill="none" stroke="#000000" points="397.8254,-78.5 645.55,-78.5 "/>
<text text-anchor="start" x="405.8254" y="-63.3" font-family="Times,serif" font-size="14.00" fill="#000000">id :integer</text>
<text text-anchor="start" x="405.8254" y="-49.3" font-family="Times,serif" font-size="14.00" fill="#000000">category_id :integer</text>
<text text-anchor="start" x="405.8254" y="-35.3" font-family="Times,serif" font-size="14.00" fill="#000000">product_id :integer</text>
<text text-anchor="start" x="405.8254" y="-21.3" font-family="Times,serif" font-size="14.00" fill="#000000">created_at :timestamp without time zone</text>
<text text-anchor="start" x="405.8254" y="-7.3" font-family="Times,serif" font-size="14.00" fill="#000000">updated_at :timestamp without time zone</text>
</g>
<!-- Category&#45;&gt;CategoryProduct -->
<g id="edge1" class="edge">
<title>Category&#45;&gt;CategoryProduct</title>
<path fill="none" stroke="#feeb3b" d="M478.9148,-267.4221C473.0692,-258.1584 467.9596,-248.1784 464.6877,-238 450.9506,-195.2647 451.7947,-179.9975 464.6877,-137 467.5159,-127.5683 471.7415,-118.2144 476.6374,-109.3364"/>
<ellipse fill="none" stroke="#feeb3b" cx="481.3009" cy="-271.0233" rx="4" ry="4"/>
<polygon fill="#feeb3b" stroke="#feeb3b" points="476.6802,-109.2633 485.614,-102.9043 479.205,-104.9476 481.7299,-100.6319 481.7299,-100.6319 481.7299,-100.6319 479.205,-104.9476 477.8457,-98.3595 476.6802,-109.2633 476.6802,-109.2633"/>
</g>
<!-- Product -->
<g id="node5" class="node">
<title>Product</title>
<path fill="none" stroke="#000000" d="M485.8254,-137.5C485.8254,-137.5 709.55,-137.5 709.55,-137.5 715.55,-137.5 721.55,-143.5 721.55,-149.5 721.55,-149.5 721.55,-225.5 721.55,-225.5 721.55,-231.5 715.55,-237.5 709.55,-237.5 709.55,-237.5 485.8254,-237.5 485.8254,-237.5 479.8254,-237.5 473.8254,-231.5 473.8254,-225.5 473.8254,-225.5 473.8254,-149.5 473.8254,-149.5 473.8254,-143.5 479.8254,-137.5 485.8254,-137.5"/>
<text text-anchor="middle" x="597.6877" y="-222.3" font-family="Times,serif" font-size="14.00" fill="#000000">Product</text>
<polyline fill="none" stroke="#000000" points="473.8254,-215.5 721.55,-215.5 "/>
<text text-anchor="start" x="481.8254" y="-200.3" font-family="Times,serif" font-size="14.00" fill="#000000">id :integer</text>
<text text-anchor="start" x="481.8254" y="-186.3" font-family="Times,serif" font-size="14.00" fill="#000000">name :character varying</text>
<text text-anchor="start" x="481.8254" y="-172.3" font-family="Times,serif" font-size="14.00" fill="#000000">price :integer</text>
<text text-anchor="start" x="481.8254" y="-158.3" font-family="Times,serif" font-size="14.00" fill="#000000">created_at :timestamp without time zone</text>
<text text-anchor="start" x="481.8254" y="-144.3" font-family="Times,serif" font-size="14.00" fill="#000000">updated_at :timestamp without time zone</text>
</g>
<!-- Category&#45;&gt;Product -->
<g id="edge2" class="edge">
<title>Category&#45;&gt;Product</title>
<path fill="none" stroke="#f02cc8" d="M552.0455,-265.5722C555.7242,-259.2798 559.5025,-252.8168 563.2348,-246.4327"/>
<polygon fill="#f02cc8" stroke="#f02cc8" points="552.0417,-265.5789 543.1098,-271.9407 549.5182,-269.8954 546.9946,-274.2119 546.9946,-274.2119 546.9946,-274.2119 549.5182,-269.8954 550.8795,-276.483 552.0417,-265.5789 552.0417,-265.5789"/>
<polygon fill="#f02cc8" stroke="#f02cc8" points="563.2351,-246.4322 572.1669,-240.0703 565.7586,-242.1157 568.2821,-237.7992 568.2821,-237.7992 568.2821,-237.7992 565.7586,-242.1157 564.3972,-235.528 563.2351,-246.4322 563.2351,-246.4322"/>
</g>
<!-- Product&#45;&gt;CategoryProduct -->
<g id="edge3" class="edge">
<title>Product&#45;&gt;CategoryProduct</title>
<path fill="none" stroke="#a6fe5f" d="M565.9035,-130.2046C562.1706,-123.4757 558.3556,-116.5986 554.6076,-109.8424"/>
<ellipse fill="none" stroke="#a6fe5f" cx="567.8793" cy="-133.7663" rx="4" ry="4"/>
<polygon fill="#a6fe5f" stroke="#a6fe5f" points="554.4035,-109.4743 553.4875,-98.5468 551.978,-105.102 549.5524,-100.7297 549.5524,-100.7297 549.5524,-100.7297 551.978,-105.102 545.6174,-102.9127 554.4035,-109.4743 554.4035,-109.4743"/>
</g>
</g>
</svg>
